<svg xmlns="http://www.w3.org/2000/svg" width="20.199" height="20" viewBox="0 0 20.199 20">
  <g id="Group_124891" data-name="Group 124891" transform="translate(0.1)">
    <rect id="Rectangle_47802" data-name="Rectangle 47802" width="20" height="20" fill="none"/>
    <g id="eye-svgrepo-com_13_" data-name="eye-svgrepo-com (13)" transform="translate(0 2)">
      <path id="Path_47" data-name="Path 47" d="M11.25,19.529a10.943,10.943,0,0,1-8.669-4.648A4.737,4.737,0,0,1,1.25,11.39,4.737,4.737,0,0,1,2.581,7.9,10.943,10.943,0,0,1,11.25,3.25,10.943,10.943,0,0,1,19.919,7.9,4.737,4.737,0,0,1,21.25,11.39a4.737,4.737,0,0,1-1.331,3.491A10.943,10.943,0,0,1,11.25,19.529Zm0-14.884a9.6,9.6,0,0,0-7.564,4.1,3.443,3.443,0,0,0-1.041,2.64,3.443,3.443,0,0,0,1.041,2.64,9.6,9.6,0,0,0,7.564,4.1,9.6,9.6,0,0,0,7.564-4.1,3.443,3.443,0,0,0,1.041-2.64,3.443,3.443,0,0,0-1.041-2.64A9.6,9.6,0,0,0,11.25,4.645Z" transform="translate(-1.25 -3.25)" fill="#9a9a9a" stroke="#9a9a9a" stroke-width="0.2"/>
      <path id="Path_48" data-name="Path 48" d="M11.738,8.25A3.488,3.488,0,1,1,8.25,11.738,3.492,3.492,0,0,1,11.738,8.25Zm0,5.581a2.093,2.093,0,1,0-2.093-2.093A2.1,2.1,0,0,0,11.738,13.831Z" transform="translate(-1.738 -3.599)" fill="#9a9a9a" stroke="#9a9a9a" stroke-width="0.2"/>
    </g>
  </g>
</svg>
